#define zigzag-174_width 16
#define zigzag-174_height 16
static char zigzag-174_bits[] = {
  0xE7, 0xE7, 0xE7, 0xE7, 0xE7, 0xFF, 0x24, 0x00, 0x24, 0x00, 0xE7, 0xFF, 
  0xE7, 0xE7, 0xE7, 0xE7, 0xE7, 0xE7, 0xE7, 0xE7, 0xFF, 0xE7, 0x00, 0x24, 
  0x00, 0x24, 0xFF, 0xE7, 0xE7, 0xE7, 0xE7, 0xE7, };
