#define zigzag-64_width 16
#define zigzag-64_height 16
static char zigzag-64_bits[] = {
  0x55, 0x55, 0x8A, 0x8A, 0x55, 0x55, 0xAA, 0xAA, 0x55, 0x55, 0xA8, 0xA8, 
  0x55, 0x55, 0xAA, 0xAA, 0x55, 0x55, 0x8A, 0x8A, 0x55, 0x55, 0xAA, 0xAA, 
  0x55, 0x55, 0xA8, 0xA8, 0x55, 0x55, 0xAA, 0xAA, };
