#define zigzag-9_width 16
#define zigzag-9_height 16
static char zigzag-9_bits[] = {
  0x00, 0xE0, 0xEE, 0xEF, 0xEE, 0xEF, 0xEE, 0xEF, 0x0E, 0x00, 0xEE, 0xFE, 
  0xEE, 0xFE, 0xEE, 0xFE, 0xE0, 0x00, 0xEF, 0xEE, 0xEF, 0xEE, 0xEF, 0xEE, 
  0x00, 0x0E, 0xFE, 0xEE, 0xFE, 0xEE, 0xFE, 0xEE, };
