#define zigzag-124_width 16
#define zigzag-124_height 16
static char zigzag-124_bits[] = {
  0x57, 0x57, 0x75, 0x75, 0x57, 0x57, 0x75, 0x75, 0x57, 0x57, 0x75, 0x75, 
  0x57, 0x57, 0x75, 0x75, 0x57, 0x57, 0x75, 0x75, 0x57, 0x57, 0x75, 0x75, 
  0x57, 0x57, 0x75, 0x75, 0x57, 0x57, 0x75, 0x75, };
