#define zigzag-150_width 16
#define zigzag-150_height 16
static char zigzag-150_bits[] = {
  0x55, 0x55, 0xAA, 0xAA, 0xEE, 0xEE, 0xD7, 0xD7, 0x55, 0x55, 0xAB, 0xAB, 
  0xAB, 0xAB, 0x55, 0x55, 0x55, 0x55, 0xAA, 0xAA, 0xEE, 0xEE, 0x7D, 0x7D, 
  0x55, 0x55, 0xBA, 0xBA, 0xBA, 0xBA, 0x55, 0x55, };
