#define zigzag-115_width 15
#define zigzag-115_height 15
static char zigzag-115_bits[] = {
  0xDB, 0x36, 0xDB, 0x36, 0xDB, 0x36, 0xDB, 0x36, 0xDB, 0x36, 0xDB, 0x36, 
  0xDB, 0x36, 0xDB, 0x36, 0xDB, 0x36, 0xDB, 0x36, 0xDB, 0x36, 0xDB, 0x36, 
  0xDB, 0x36, 0xDB, 0x36, 0xDB, 0x36, };
