#define zigzag-142_width 14
#define zigzag-142_height 14
static char zigzag-142_bits[] = {
  0x6E, 0x37, 0xBB, 0x1D, 0xED, 0x36, 0xB7, 0x1B, 0xDD, 0x2E, 0x76, 0x3B, 
  0xDB, 0x2D, 0x6E, 0x37, 0xBB, 0x1D, 0xED, 0x36, 0xB7, 0x1B, 0xDD, 0x2E, 
  0x76, 0x3B, 0xDB, 0x2D, };
