#define zigzag-148_width 12
#define zigzag-148_height 12
static char zigzag-148_bits[] = {
  0xDB, 0x06, 0x75, 0x0D, 0xAE, 0x0B, 0x75, 0x0D, 0xDB, 0x06, 0xAE, 0x0B, 
  0xDB, 0x06, 0x75, 0x0D, 0xAE, 0x0B, 0x75, 0x0D, 0xDB, 0x06, 0xAE, 0x0B, 
  };
