#define zigzag-83_width 3
#define zigzag-83_height 3
static char zigzag-83_bits[] = {
  0x00, 0x02, 0x00, };
