#define zigzag-42_width 16
#define zigzag-42_height 16
static char zigzag-42_bits[] = {
  0x9F, 0xF9, 0x9F, 0xF9, 0x3F, 0xFF, 0x3F, 0xFE, 0x7F, 0xFC, 0xDC, 0x18, 
  0x8C, 0x0D, 0xC7, 0xC7, 0xE3, 0xE3, 0xB0, 0x31, 0x18, 0x3B, 0x3F, 0xFE, 
  0x7F, 0xFC, 0xFF, 0xFC, 0x9F, 0xF9, 0x9F, 0xF9, };
