#define zigzag-13_width 16
#define zigzag-13_height 16
static char zigzag-13_bits[] = {
  0x00, 0x00, 0xFE, 0xFE, 0xFE, 0xFE, 0xFE, 0xFE, 0x00, 0x00, 0xEF, 0xEF, 
  0xEF, 0xEF, 0xEF, 0xEF, 0x00, 0x00, 0xFE, 0xFE, 0xFE, 0xFE, 0xFE, 0xFE, 
  0x00, 0x00, 0xEF, 0xEF, 0xEF, 0xEF, 0xEF, 0xEF, };
