#define zigzag-105_width 16
#define zigzag-105_height 16
static char zigzag-105_bits[] = {
  0x33, 0x33, 0x66, 0x66, 0xCC, 0xCC, 0x99, 0x99, 0x33, 0x33, 0x66, 0x66, 
  0xCC, 0xCC, 0x99, 0x99, 0x33, 0x33, 0x66, 0x66, 0xCC, 0xCC, 0x99, 0x99, 
  0x33, 0x33, 0x66, 0x66, 0xCC, 0xCC, 0x99, 0x99, };
