#define zigzag-121_width 15
#define zigzag-121_height 15
static char zigzag-121_bits[] = {
  0xE7, 0x1C, 0xE7, 0x1C, 0xE7, 0x1C, 0xE7, 0x1C, 0xE7, 0x1C, 0xE7, 0x1C, 
  0xE7, 0x1C, 0xE7, 0x1C, 0xE7, 0x1C, 0xE7, 0x1C, 0xE7, 0x1C, 0xE7, 0x1C, 
  0xE7, 0x1C, 0xE7, 0x1C, 0xE7, 0x1C, };
