#define zigzag-133_width 16
#define zigzag-133_height 16
static char zigzag-133_bits[] = {
  0x10, 0x10, 0x7F, 0x7F, 0x04, 0x04, 0xDF, 0xDF, 0x01, 0x01, 0xF7, 0xF7, 
  0x40, 0x40, 0xFD, 0xFD, 0x10, 0x10, 0x7F, 0x7F, 0x04, 0x04, 0xDF, 0xDF, 
  0x01, 0x01, 0xF7, 0xF7, 0x40, 0x40, 0xFD, 0xFD, };
