#define zigzag-181_width 16
#define zigzag-181_height 16
static char zigzag-181_bits[] = {
  0x33, 0x33, 0xCC, 0xCC, 0xFF, 0xFF, 0xFF, 0xFF, 0x33, 0x33, 0xCC, 0xCC, 
  0xFF, 0xFF, 0xFF, 0xFF, 0x33, 0x33, 0xCC, 0xCC, 0xFF, 0xFF, 0xFF, 0xFF, 
  0x33, 0x33, 0xCC, 0xCC, 0xFF, 0xFF, 0xFF, 0xFF, };
