#define zigzag-137_width 16
#define zigzag-137_height 16
static char zigzag-137_bits[] = {
  0xFE, 0xFF, 0x02, 0x80, 0xFA, 0xBF, 0x0A, 0xA0, 0xEA, 0xAF, 0x2A, 0xA8, 
  0xAA, 0xAB, 0xAA, 0xAA, 0xAA, 0xAA, 0x2A, 0xAA, 0xEA, 0xAB, 0x0A, 0xA8, 
  0xFA, 0xAF, 0x02, 0xA0, 0xFE, 0xBF, 0x00, 0x80, };
