#define zigzag-165_width 13
#define zigzag-165_height 13
static char zigzag-165_bits[] = {
  0xF4, 0x17, 0x97, 0x1E, 0xFE, 0x12, 0xD2, 0x1F, 0x5F, 0x1A, 0xFA, 0x0B, 
  0x4B, 0x1F, 0x7F, 0x09, 0xE9, 0x0F, 0x2F, 0x1D, 0xFD, 0x05, 0xA5, 0x1F, 
  0xBF, 0x14, };
