#define zigzag-108_width 16
#define zigzag-108_height 16
static char zigzag-108_bits[] = {
  0xCF, 0xCF, 0x9F, 0x9F, 0x3F, 0x3F, 0x7E, 0x7E, 0xFC, 0xFC, 0xF9, 0xF9, 
  0xF3, 0xF3, 0xE7, 0xE7, 0xCF, 0xCF, 0x9F, 0x9F, 0x3F, 0x3F, 0x7E, 0x7E, 
  0xFC, 0xFC, 0xF9, 0xF9, 0xF3, 0xF3, 0xE7, 0xE7, };
