#define zigzag-6_width 12
#define zigzag-6_height 12
static char zigzag-6_bits[] = {
  0xBE, 0x0F, 0x5D, 0x0F, 0xEB, 0x0E, 0xF7, 0x0D, 0xFB, 0x0A, 0x7D, 0x07, 
  0xBE, 0x0F, 0xDD, 0x07, 0xEB, 0x0B, 0xF7, 0x0D, 0xEF, 0x0A, 0x5F, 0x07, 
  };
