#define zigzag-159_width 16
#define zigzag-159_height 16
static char zigzag-159_bits[] = {
  0xAD, 0xAD, 0xB5, 0xB5, 0x5B, 0x5B, 0xDA, 0xDA, 0xAD, 0xAD, 0xB5, 0xB5, 
  0x5B, 0x5B, 0xDA, 0xDA, 0xAD, 0xAD, 0xB5, 0xB5, 0x5B, 0x5B, 0xDA, 0xDA, 
  0xAD, 0xAD, 0xB5, 0xB5, 0x5B, 0x5B, 0xDA, 0xDA, };
