#define zigzag-103_width 15
#define zigzag-103_height 15
static char zigzag-103_bits[] = {
  0x24, 0x49, 0x49, 0x12, 0x92, 0x24, 0x24, 0x49, 0x49, 0x12, 0x92, 0x24, 
  0x24, 0x49, 0x49, 0x12, 0x92, 0x24, 0x24, 0x49, 0x49, 0x12, 0x92, 0x24, 
  0x24, 0x49, 0x49, 0x12, 0x92, 0x24, };
