#define zigzag-68_width 16
#define zigzag-68_height 16
static char zigzag-68_bits[] = {
  0x55, 0x55, 0xEE, 0xEE, 0x55, 0x55, 0xBA, 0xBA, 0x55, 0x55, 0xEE, 0xEE, 
  0x55, 0x55, 0xAB, 0xAB, 0x55, 0x55, 0xEE, 0xEE, 0x55, 0x55, 0xBA, 0xBA, 
  0x55, 0x55, 0xEE, 0xEE, 0x55, 0x55, 0xAB, 0xAB, };
