#define zigzag-75_width 16
#define zigzag-75_height 16
static char zigzag-75_bits[] = {
  0xFF, 0xFF, 0x55, 0x55, 0xFF, 0xFF, 0xBB, 0xBB, 0xFF, 0xFF, 0x55, 0x55, 
  0xFF, 0xFF, 0xEE, 0xEE, 0xFF, 0xFF, 0x55, 0x55, 0xFF, 0xFF, 0xBB, 0xBB, 
  0xFF, 0xFF, 0x55, 0x55, 0xFF, 0xFF, 0xEE, 0xEE, };
