#define zigzag-66_width 16
#define zigzag-66_height 16
static char zigzag-66_bits[] = {
  0x55, 0x55, 0xAE, 0xAE, 0x55, 0x55, 0xAA, 0xAA, 0x55, 0x55, 0xEA, 0xEA, 
  0x55, 0x55, 0xAA, 0xAA, 0x55, 0x55, 0xAE, 0xAE, 0x55, 0x55, 0xAA, 0xAA, 
  0x55, 0x55, 0xEA, 0xEA, 0x55, 0x55, 0xAA, 0xAA, };
