#define zigzag-58_width 16
#define zigzag-58_height 16
static char zigzag-58_bits[] = {
  0x00, 0x00, 0x55, 0x55, 0x20, 0x20, 0x55, 0x55, 0x00, 0x00, 0x55, 0x55, 
  0x02, 0x02, 0x55, 0x55, 0x00, 0x00, 0x55, 0x55, 0x20, 0x20, 0x55, 0x55, 
  0x00, 0x00, 0x55, 0x55, 0x02, 0x02, 0x55, 0x55, };
