#define zigzag-54_width 16
#define zigzag-54_height 16
static char zigzag-54_bits[] = {
  0x00, 0x00, 0x55, 0x55, 0x00, 0x00, 0x44, 0x44, 0x00, 0x00, 0x55, 0x55, 
  0x00, 0x00, 0x44, 0x44, 0x00, 0x00, 0x55, 0x55, 0x00, 0x00, 0x44, 0x44, 
  0x00, 0x00, 0x55, 0x55, 0x00, 0x00, 0x44, 0x44, };
