#define zigzag-116_width 15
#define zigzag-116_height 15
static char zigzag-116_bits[] = {
  0x49, 0x12, 0x49, 0x12, 0x49, 0x12, 0x49, 0x12, 0x49, 0x12, 0x49, 0x12, 
  0x49, 0x12, 0x49, 0x12, 0x49, 0x12, 0x49, 0x12, 0x49, 0x12, 0x49, 0x12, 
  0x49, 0x12, 0x49, 0x12, 0x49, 0x12, };
