#define zigzag-145_width 16
#define zigzag-145_height 16
static char zigzag-145_bits[] = {
  0xEE, 0xEE, 0xEE, 0xEE, 0xBB, 0xBB, 0xBB, 0xBB, 0xEE, 0xEE, 0xEE, 0xEE, 
  0xBB, 0xBB, 0xBB, 0xBB, 0xEE, 0xEE, 0xEE, 0xEE, 0xBB, 0xBB, 0xBB, 0xBB, 
  0xEE, 0xEE, 0xEE, 0xEE, 0xBB, 0xBB, 0xBB, 0xBB, };
