#define zigzag-180_width 16
#define zigzag-180_height 16
static char zigzag-180_bits[] = {
  0x5F, 0xF9, 0xB3, 0xF2, 0x69, 0xE5, 0xD4, 0xCA, 0xEA, 0x55, 0xF5, 0x2B, 
  0xFA, 0x97, 0xFD, 0x4F, 0xFE, 0xA7, 0xF3, 0x53, 0xE5, 0xA9, 0xCA, 0xD4, 
  0x95, 0xEA, 0x2B, 0xF5, 0x57, 0xFA, 0xAF, 0xFC, };
