#define zigzag-67_width 16
#define zigzag-67_height 16
static char zigzag-67_bits[] = {
  0x57, 0x57, 0xAA, 0xAA, 0x75, 0x75, 0xAA, 0xAA, 0x57, 0x57, 0xAA, 0xAA, 
  0x75, 0x75, 0xAA, 0xAA, 0x57, 0x57, 0xAA, 0xAA, 0x75, 0x75, 0xAA, 0xAA, 
  0x57, 0x57, 0xAA, 0xAA, 0x75, 0x75, 0xAA, 0xAA, };
