#define zigzag-17_width 16
#define zigzag-17_height 16
static char zigzag-17_bits[] = {
  0x33, 0x33, 0x33, 0x33, 0xCC, 0xCC, 0xCC, 0xCC, 0x33, 0x33, 0x33, 0x33, 
  0xCC, 0xCC, 0xCC, 0xCC, 0x33, 0x33, 0x33, 0x33, 0xCC, 0xCC, 0xCC, 0xCC, 
  0x33, 0x33, 0x33, 0x33, 0xCC, 0xCC, 0xCC, 0xCC, };
