#define zigzag-138_width 16
#define zigzag-138_height 16
static char zigzag-138_bits[] = {
  0x01, 0x01, 0x7D, 0x7D, 0x45, 0x45, 0x55, 0x55, 0x45, 0x45, 0x7D, 0x7D, 
  0x01, 0x01, 0xFF, 0xFF, 0x01, 0x01, 0x7D, 0x7D, 0x45, 0x45, 0x55, 0x55, 
  0x45, 0x45, 0x7D, 0x7D, 0x01, 0x01, 0xFF, 0xFF, };
