#define zigzag-90_width 3
#define zigzag-90_height 3
static char zigzag-90_bits[] = {
  0x05, 0x07, 0x07, };
