#define zigzag-143_width 16
#define zigzag-143_height 16
static char zigzag-143_bits[] = {
  0x77, 0x77, 0xBB, 0xBB, 0xEE, 0xEE, 0x77, 0x77, 0xDD, 0xDD, 0xEE, 0xEE, 
  0xBB, 0xBB, 0xDD, 0xDD, 0x77, 0x77, 0xBB, 0xBB, 0xEE, 0xEE, 0x77, 0x77, 
  0xDD, 0xDD, 0xEE, 0xEE, 0xBB, 0xBB, 0xDD, 0xDD, };
