#define zigzag-109_width 16
#define zigzag-109_height 16
static char zigzag-109_bits[] = {
  0x8F, 0x8F, 0x1F, 0x1F, 0x3E, 0x3E, 0x7C, 0x7C, 0xF8, 0xF8, 0xF1, 0xF1, 
  0xE3, 0xE3, 0xC7, 0xC7, 0x8F, 0x8F, 0x1F, 0x1F, 0x3E, 0x3E, 0x7C, 0x7C, 
  0xF8, 0xF8, 0xF1, 0xF1, 0xE3, 0xE3, 0xC7, 0xC7, };
