#define zigzag-79_width 16
#define zigzag-79_height 16
static char zigzag-79_bits[] = {
  0xFF, 0xFF, 0xDF, 0xDF, 0xFF, 0xFF, 0xFD, 0xFD, 0xFF, 0xFF, 0xDF, 0xDF, 
  0xFF, 0xFF, 0xFD, 0xFD, 0xFF, 0xFF, 0xDF, 0xDF, 0xFF, 0xFF, 0xFD, 0xFD, 
  0xFF, 0xFF, 0xDF, 0xDF, 0xFF, 0xFF, 0xFD, 0xFD, };
