#define zigzag-139_width 16
#define zigzag-139_height 16
static char zigzag-139_bits[] = {
  0x63, 0x63, 0x1B, 0x1B, 0x18, 0x18, 0x81, 0x81, 0xB1, 0xB1, 0x36, 0x36, 
  0x06, 0x06, 0x60, 0x60, 0x63, 0x63, 0x1B, 0x1B, 0x18, 0x18, 0x81, 0x81, 
  0xB1, 0xB1, 0x36, 0x36, 0x06, 0x06, 0x60, 0x60, };
