#define zigzag-178_width 16
#define zigzag-178_height 16
static char zigzag-178_bits[] = {
  0xF0, 0x07, 0xE7, 0x73, 0xCE, 0x39, 0x9C, 0x9C, 0x39, 0xCE, 0x73, 0xE6, 
  0xE7, 0xF0, 0xCF, 0xF9, 0x87, 0xF3, 0x33, 0xE7, 0x39, 0xCE, 0x9C, 0x9C, 
  0xCE, 0x39, 0xE7, 0x73, 0xF0, 0x07, 0xFF, 0xFF, };
