#define zigzag-27_width 16
#define zigzag-27_height 16
static char zigzag-27_bits[] = {
  0x08, 0x08, 0x14, 0x14, 0x2A, 0x2A, 0x55, 0x55, 0x2A, 0x2A, 0x14, 0x14, 
  0x08, 0x08, 0x00, 0x00, 0x08, 0x08, 0x14, 0x14, 0x2A, 0x2A, 0x55, 0x55, 
  0x2A, 0x2A, 0x14, 0x14, 0x08, 0x08, 0x00, 0x00, };
