#define zigzag-168_width 16
#define zigzag-168_height 16
static char zigzag-168_bits[] = {
  0x11, 0x11, 0xB8, 0xB8, 0x7C, 0x7C, 0x3A, 0x3A, 0x11, 0x11, 0xA3, 0xA3, 
  0xC7, 0xC7, 0x8B, 0x8B, 0x11, 0x11, 0xB8, 0xB8, 0x7C, 0x7C, 0x3A, 0x3A, 
  0x11, 0x11, 0xA3, 0xA3, 0xC7, 0xC7, 0x8B, 0x8B, };
