#define zigzag-1_width 16
#define zigzag-1_height 16
static char zigzag-1_bits[] = {
  0xC7, 0xC7, 0xC7, 0xC7, 0xBB, 0xBB, 0x64, 0x64, 0x7C, 0x7C, 0x7C, 0x7C, 
  0xBB, 0xBB, 0x46, 0x46, 0xC7, 0xC7, 0xC7, 0xC7, 0xBB, 0xBB, 0x64, 0x64, 
  0x7C, 0x7C, 0x7C, 0x7C, 0xBB, 0xBB, 0x46, 0x46, };
