#define zigzag-127_width 16
#define zigzag-127_height 16
static char zigzag-127_bits[] = {
  0xFF, 0xAA, 0xFF, 0x55, 0xFF, 0xAA, 0xFF, 0x55, 0xFF, 0xAA, 0xFF, 0x55, 
  0xFF, 0xAA, 0xFF, 0x55, 0x55, 0x00, 0xAA, 0x00, 0x55, 0x00, 0xAA, 0x00, 
  0x55, 0x00, 0xAA, 0x00, 0x55, 0x00, 0xAA, 0x00, };
