#define zigzag-70_width 16
#define zigzag-70_height 16
static char zigzag-70_bits[] = {
  0xEE, 0xEE, 0x55, 0x55, 0xFB, 0xFB, 0x55, 0x55, 0xEE, 0xEE, 0x55, 0x55, 
  0xBF, 0xBF, 0x55, 0x55, 0xEE, 0xEE, 0x55, 0x55, 0xFB, 0xFB, 0x55, 0x55, 
  0xEE, 0xEE, 0x55, 0x55, 0xBF, 0xBF, 0x55, 0x55, };
