#define zigzag-40_width 16
#define zigzag-40_height 16
static char zigzag-40_bits[] = {
  0x55, 0x55, 0xFF, 0xFF, 0x55, 0x55, 0xFF, 0xFF, 0x55, 0x55, 0xFF, 0xFF, 
  0x55, 0x55, 0xFF, 0xFF, 0x55, 0x55, 0xFF, 0xFF, 0x55, 0x55, 0xFF, 0xFF, 
  0x55, 0x55, 0xFF, 0xFF, 0x55, 0x55, 0xFF, 0xFF, };
