#define zigzag-52_width 16
#define zigzag-52_height 16
static char zigzag-52_bits[] = {
  0x00, 0x00, 0x44, 0x44, 0x00, 0x00, 0x00, 0x00, 0x00, 0x00, 0x44, 0x44, 
  0x00, 0x00, 0x00, 0x00, 0x00, 0x00, 0x44, 0x44, 0x00, 0x00, 0x00, 0x00, 
  0x00, 0x00, 0x44, 0x44, 0x00, 0x00, 0x00, 0x00, };
