#define zigzag-118_width 16
#define zigzag-118_height 16
static char zigzag-118_bits[] = {
  0x33, 0x33, 0x33, 0x33, 0x33, 0x33, 0x33, 0x33, 0x33, 0x33, 0x33, 0x33, 
  0x33, 0x33, 0x33, 0x33, 0x33, 0x33, 0x33, 0x33, 0x33, 0x33, 0x33, 0x33, 
  0x33, 0x33, 0x33, 0x33, 0x33, 0x33, 0x33, 0x33, };
