#define zigzag-96_width 16
#define zigzag-96_height 16
static char zigzag-96_bits[] = {
  0xEF, 0xEF, 0xD7, 0xD7, 0xBB, 0xBB, 0x7D, 0x7D, 0xFE, 0xFE, 0x7D, 0x7D, 
  0xBB, 0xBB, 0xD7, 0xD7, 0xEF, 0xEF, 0xD7, 0xD7, 0xBB, 0xBB, 0x7D, 0x7D, 
  0xFE, 0xFE, 0x7D, 0x7D, 0xBB, 0xBB, 0xD7, 0xD7, };
