#define zigzag-106_width 16
#define zigzag-106_height 16
static char zigzag-106_bits[] = {
  0x44, 0x44, 0x88, 0x88, 0x11, 0x11, 0x22, 0x22, 0x44, 0x44, 0x88, 0x88, 
  0x11, 0x11, 0x22, 0x22, 0x44, 0x44, 0x88, 0x88, 0x11, 0x11, 0x22, 0x22, 
  0x44, 0x44, 0x88, 0x88, 0x11, 0x11, 0x22, 0x22, };
