#define zigzag-26_width 16
#define zigzag-26_height 16
static char zigzag-26_bits[] = {
  0x55, 0x45, 0x7D, 0x01, 0xD7, 0x01, 0xFE, 0x01, 0xFE, 0x28, 0xFE, 0x82, 
  0xBA, 0xAA, 0x55, 0x55, 0xAA, 0xBA, 0x82, 0xFE, 0x28, 0xFE, 0x01, 0xFE, 
  0x01, 0xD7, 0x01, 0x7D, 0x45, 0x55, 0xAA, 0xAA, };
