#define zigzag-73_width 16
#define zigzag-73_height 16
static char zigzag-73_bits[] = {
  0xDD, 0xDD, 0x77, 0x77, 0xDD, 0xDD, 0x77, 0x77, 0xDD, 0xDD, 0x77, 0x77, 
  0xDD, 0xDD, 0x77, 0x77, 0xDD, 0xDD, 0x77, 0x77, 0xDD, 0xDD, 0x77, 0x77, 
  0xDD, 0xDD, 0x77, 0x77, 0xDD, 0xDD, 0x77, 0x77, };
