#define zigzag-134_width 16
#define zigzag-134_height 16
static char zigzag-134_bits[] = {
  0x08, 0x08, 0x08, 0x08, 0x14, 0x14, 0xE3, 0xE3, 0x80, 0x80, 0x80, 0x80, 
  0x41, 0x41, 0x3E, 0x3E, 0x08, 0x08, 0x08, 0x08, 0x14, 0x14, 0xE3, 0xE3, 
  0x80, 0x80, 0x80, 0x80, 0x41, 0x41, 0x3E, 0x3E, };
