#define zigzag-34_width 16
#define zigzag-34_height 16
static char zigzag-34_bits[] = {
  0x7F, 0x26, 0xE7, 0xFF, 0xFF, 0x9F, 0x99, 0xFC, 0xFF, 0xCF, 0x9C, 0xFF, 
  0xFF, 0xFC, 0xFE, 0x4F, 0xCF, 0xF9, 0xF9, 0xFF, 0x9F, 0xCC, 0xFC, 0xFF, 
  0xFF, 0xF9, 0x27, 0x3F, 0xFF, 0xFC, 0xF9, 0xFF, };
