#define zigzag-37_width 16
#define zigzag-37_height 16
static char zigzag-37_bits[] = {
  0xBF, 0xBF, 0xF7, 0xF7, 0xFE, 0xFE, 0xDF, 0xDF, 0xFB, 0xFB, 0x7F, 0x7F, 
  0xEF, 0xEF, 0xFD, 0xFD, 0xBF, 0xBF, 0xF7, 0xF7, 0xFE, 0xFE, 0xDF, 0xDF, 
  0xFB, 0xFB, 0x7F, 0x7F, 0xEF, 0xEF, 0xFD, 0xFD, };
