#define zigzag-125_width 12
#define zigzag-125_height 12
static char zigzag-125_bits[] = {
  0x3F, 0x03, 0xF3, 0x0C, 0xCC, 0x0F, 0xCC, 0x0F, 0xF3, 0x0C, 0x3F, 0x03, 
  0x3F, 0x03, 0xF3, 0x0C, 0xCC, 0x0F, 0xCC, 0x0F, 0xF3, 0x0C, 0x3F, 0x03, 
  };
