#define zigzag-51_width 16
#define zigzag-51_height 16
static char zigzag-51_bits[] = {
  0x00, 0x00, 0x04, 0x04, 0x00, 0x00, 0x40, 0x40, 0x00, 0x00, 0x04, 0x04, 
  0x00, 0x00, 0x40, 0x40, 0x00, 0x00, 0x04, 0x04, 0x00, 0x00, 0x40, 0x40, 
  0x00, 0x00, 0x04, 0x04, 0x00, 0x00, 0x40, 0x40, };
