#define zigzag-0_width 16
#define zigzag-0_height 16
static char zigzag-0_bits[] = {
  0x08, 0x08, 0x08, 0x08, 0xAA, 0xAA, 0x41, 0x41, 0x80, 0x80, 0x80, 0x80, 
  0xAA, 0xAA, 0x14, 0x14, 0x08, 0x08, 0x08, 0x08, 0xAA, 0xAA, 0x41, 0x41, 
  0x80, 0x80, 0x80, 0x80, 0xAA, 0xAA, 0x14, 0x14, };
