#define zigzag-169_width 18
#define zigzag-169_height 18
static char zigzag-169_bits[] = {
  0x8E, 0xE3, 0x00, 0x49, 0x92, 0x00, 0x71, 0x1C, 0x03, 0xE3, 0x38, 0x02, 
  0x24, 0x49, 0x02, 0x1C, 0xC7, 0x01, 0x8E, 0xE3, 0x00, 0x49, 0x92, 0x00, 
  0x71, 0x1C, 0x03, 0xE3, 0x38, 0x02, 0x24, 0x49, 0x02, 0x1C, 0xC7, 0x01, 
  0x8E, 0xE3, 0x00, 0x49, 0x92, 0x00, 0x71, 0x1C, 0x03, 0xE3, 0x38, 0x02, 
  0x24, 0x49, 0x02, 0x1C, 0xC7, 0x01, };
