#define zigzag-119_width 16
#define zigzag-119_height 16
static char zigzag-119_bits[] = {
  0x11, 0x11, 0x11, 0x11, 0x11, 0x11, 0x11, 0x11, 0x11, 0x11, 0x11, 0x11, 
  0x11, 0x11, 0x11, 0x11, 0x11, 0x11, 0x11, 0x11, 0x11, 0x11, 0x11, 0x11, 
  0x11, 0x11, 0x11, 0x11, 0x11, 0x11, 0x11, 0x11, };
