#define zigzag-94_width 16
#define zigzag-94_height 16
static char zigzag-94_bits[] = {
  0xAA, 0xAA, 0xFF, 0xFF, 0xFE, 0xFE, 0xFF, 0xFF, 0xFE, 0xFE, 0xFF, 0xFF, 
  0xFE, 0xFE, 0xFF, 0xFF, 0xAA, 0xAA, 0xFF, 0xFF, 0xFE, 0xFE, 0xFF, 0xFF, 
  0xFE, 0xFE, 0xFF, 0xFF, 0xFE, 0xFE, 0xFF, 0xFF, };
