#define zigzag-173_width 16
#define zigzag-173_height 16
static char zigzag-173_bits[] = {
  0xFD, 0xFD, 0x05, 0x05, 0xFD, 0xFD, 0xDD, 0xDD, 0xDF, 0xDF, 0x50, 0x50, 
  0xDF, 0xDF, 0xDD, 0xDD, 0xFD, 0xFD, 0x05, 0x05, 0xFD, 0xFD, 0xDD, 0xDD, 
  0xDF, 0xDF, 0x50, 0x50, 0xDF, 0xDF, 0xDD, 0xDD, };
