#define zigzag-46_width 16
#define zigzag-46_height 16
static char zigzag-46_bits[] = {
  0xFF, 0xFF, 0x87, 0xE1, 0x03, 0xC3, 0x63, 0xC6, 0xFF, 0xCC, 0x80, 0x49, 
  0xC0, 0x4B, 0xFF, 0xCF, 0xFF, 0xCF, 0xC0, 0x4B, 0x80, 0x49, 0xFF, 0xCC, 
  0x63, 0xC6, 0x03, 0xC3, 0x87, 0xE1, 0xFF, 0xFF, };
