#define zigzag-131_width 16
#define zigzag-131_height 16
static char zigzag-131_bits[] = {
  0x88, 0x88, 0x52, 0x52, 0x09, 0x09, 0xE2, 0xE2, 0x11, 0x11, 0x44, 0x44, 
  0x92, 0x92, 0x29, 0x29, 0x88, 0x88, 0x52, 0x52, 0x09, 0x09, 0xE2, 0xE2, 
  0x11, 0x11, 0x44, 0x44, 0x92, 0x92, 0x29, 0x29, };
