#define zigzag-33_width 16
#define zigzag-33_height 16
static char zigzag-33_bits[] = {
  0x99, 0x99, 0xF6, 0xF6, 0x99, 0x99, 0x6F, 0x6F, 0x99, 0x99, 0xF6, 0xF6, 
  0x99, 0x99, 0x6F, 0x6F, 0x99, 0x99, 0xF6, 0xF6, 0x99, 0x99, 0x6F, 0x6F, 
  0x99, 0x99, 0xF6, 0xF6, 0x99, 0x99, 0x6F, 0x6F, };
