#define zigzag-129_width 16
#define zigzag-129_height 16
static char zigzag-129_bits[] = {
  0xC0, 0x01, 0xC0, 0x01, 0xE0, 0x03, 0xE0, 0x12, 0x60, 0x13, 0xC0, 0x11, 
  0x08, 0x38, 0x08, 0x38, 0x08, 0x7C, 0x1C, 0x5C, 0x1C, 0x6C, 0x3E, 0x38, 
  0x2E, 0x00, 0xB6, 0x00, 0x9C, 0x00, 0x80, 0x00, };
