#define zigzag-78_width 16
#define zigzag-78_height 16
static char zigzag-78_bits[] = {
  0xFF, 0xFF, 0xDD, 0xDD, 0xFF, 0xFF, 0xFF, 0xFF, 0xFF, 0xFF, 0xDD, 0xDD, 
  0xFF, 0xFF, 0xFF, 0xFF, 0xFF, 0xFF, 0xDD, 0xDD, 0xFF, 0xFF, 0xFF, 0xFF, 
  0xFF, 0xFF, 0xDD, 0xDD, 0xFF, 0xFF, 0xFF, 0xFF, };
