#define zigzag-147_width 16
#define zigzag-147_height 16
static char zigzag-147_bits[] = {
  0xA4, 0xDA, 0xA4, 0xDA, 0xA3, 0x3A, 0x90, 0xF6, 0x88, 0xEE, 0x87, 0x1E, 
  0x80, 0xFE, 0xFF, 0x00, 0x00, 0xFF, 0x7F, 0x01, 0x78, 0xE1, 0x77, 0x11, 
  0x6F, 0x09, 0x5C, 0xC5, 0x5B, 0x25, 0x5B, 0x25, };
