#define zigzag-154_width 16
#define zigzag-154_height 16
static char zigzag-154_bits[] = {
  0xDA, 0x3D, 0x16, 0xF1, 0x8F, 0x68, 0x43, 0xA4, 0x25, 0xC2, 0xE9, 0x0E, 
  0x70, 0x97, 0x43, 0xA4, 0x25, 0xC2, 0xE9, 0x0E, 0x70, 0x97, 0x43, 0xA4, 
  0x25, 0xC2, 0x16, 0xF1, 0x8F, 0x68, 0xBC, 0x5B, };
