#define zigzag-38_width 16
#define zigzag-38_height 16
static char zigzag-38_bits[] = {
  0xEE, 0xEE, 0xBB, 0xBB, 0xEE, 0xEE, 0xBB, 0xBB, 0xEE, 0xEE, 0xBB, 0xBB, 
  0xEE, 0xEE, 0xBB, 0xBB, 0xEE, 0xEE, 0xBB, 0xBB, 0xEE, 0xEE, 0xBB, 0xBB, 
  0xEE, 0xEE, 0xBB, 0xBB, 0xEE, 0xEE, 0xBB, 0xBB, };
