#define zigzag-56_width 16
#define zigzag-56_height 16
static char zigzag-56_bits[] = {
  0x00, 0x00, 0x55, 0x55, 0x00, 0x00, 0x55, 0x55, 0x00, 0x00, 0x55, 0x55, 
  0x00, 0x00, 0x55, 0x55, 0x00, 0x00, 0x55, 0x55, 0x00, 0x00, 0x55, 0x55, 
  0x00, 0x00, 0x55, 0x55, 0x00, 0x00, 0x55, 0x55, };
