#define zigzag-19_width 12
#define zigzag-19_height 12
static char zigzag-19_bits[] = {
  0x2C, 0x0B, 0x65, 0x09, 0xFF, 0x0F, 0x34, 0x0D, 0xA6, 0x09, 0xFF, 0x0F, 
  0x2C, 0x0B, 0x65, 0x09, 0xFF, 0x0F, 0x34, 0x0D, 0xA6, 0x09, 0xFF, 0x0F, 
  };
