#define zigzag-72_width 16
#define zigzag-72_height 16
static char zigzag-72_bits[] = {
  0xFF, 0xFF, 0x55, 0x55, 0xFB, 0xFB, 0x55, 0x55, 0xFF, 0xFF, 0x55, 0x55, 
  0xBF, 0xBF, 0x55, 0x55, 0xFF, 0xFF, 0x55, 0x55, 0xFB, 0xFB, 0x55, 0x55, 
  0xFF, 0xFF, 0x55, 0x55, 0xBF, 0xBF, 0x55, 0x55, };
