#define zigzag-12_width 16
#define zigzag-12_height 16
static char zigzag-12_bits[] = {
  0xEE, 0xEE, 0xBA, 0xBB, 0xDC, 0xDD, 0x76, 0x77, 0xEE, 0xEE, 0x00, 0x00, 
  0xDD, 0xDC, 0x77, 0x76, 0xEE, 0xEE, 0xBB, 0xBA, 0xDD, 0xDC, 0x77, 0x76, 
  0xEE, 0xEE, 0x00, 0x00, 0xDC, 0xDD, 0x76, 0x77, };
