#define zigzag-3_width 16
#define zigzag-3_height 16
static char zigzag-3_bits[] = {
  0x00, 0x00, 0xFC, 0xF9, 0xFC, 0xF9, 0xFC, 0xF9, 0x00, 0x00, 0x9F, 0x3F, 
  0x9F, 0x3F, 0x9F, 0x3F, 0x00, 0x00, 0xFC, 0xF9, 0xFC, 0xF9, 0xFC, 0xF9, 
  0x00, 0x00, 0x9F, 0x3F, 0x9F, 0x3F, 0x9F, 0x3F, };
