#define zigzag-7_width 12
#define zigzag-7_height 12
static char zigzag-7_bits[] = {
  0xBE, 0x0F, 0x5D, 0x0F, 0xEB, 0x0E, 0xF7, 0x0D, 0xFB, 0x0A, 0x7D, 0x07, 
  0xBE, 0x0F, 0x5D, 0x0F, 0xEB, 0x0E, 0xF7, 0x0D, 0xFB, 0x0A, 0x7D, 0x07, 
  };
