#define zigzag-160_width 16
#define zigzag-160_height 16
static char zigzag-160_bits[] = {
  0x76, 0x62, 0xF7, 0xFB, 0x07, 0xFB, 0x7E, 0x1B, 0x7E, 0xD8, 0xE0, 0xDF, 
  0xEF, 0xDF, 0x6E, 0x46, 0x62, 0x76, 0xFB, 0xF7, 0xFB, 0x07, 0x1B, 0x7E, 
  0xD8, 0x7E, 0xDF, 0xE0, 0xDF, 0xEF, 0x46, 0x6E, };
