#define zigzag-172_width 16
#define zigzag-172_height 16
static char zigzag-172_bits[] = {
  0xFD, 0xFD, 0x05, 0x05, 0xFD, 0xFD, 0xBD, 0xBD, 0xBD, 0xBD, 0xBF, 0xBF, 
  0xA0, 0xA0, 0xBF, 0xBF, 0xFD, 0xFD, 0x05, 0x05, 0xFD, 0xFD, 0xBD, 0xBD, 
  0xBD, 0xBD, 0xBF, 0xBF, 0xA0, 0xA0, 0xBF, 0xBF, };
