#define zigzag-114_width 16
#define zigzag-114_height 16
static char zigzag-114_bits[] = {
  0x55, 0x55, 0x55, 0x55, 0x55, 0x55, 0x55, 0x55, 0x55, 0x55, 0x55, 0x55, 
  0x55, 0x55, 0x55, 0x55, 0x55, 0x55, 0x55, 0x55, 0x55, 0x55, 0x55, 0x55, 
  0x55, 0x55, 0x55, 0x55, 0x55, 0x55, 0x55, 0x55, };
