#define zigzag-158_width 16
#define zigzag-158_height 16
static char zigzag-158_bits[] = {
  0x22, 0x22, 0xEE, 0xEE, 0x77, 0x77, 0x44, 0x44, 0x22, 0x22, 0xEE, 0xEE, 
  0x77, 0x77, 0x44, 0x44, 0x22, 0x22, 0xEE, 0xEE, 0x77, 0x77, 0x44, 0x44, 
  0x22, 0x22, 0xEE, 0xEE, 0x77, 0x77, 0x44, 0x44, };
