#define zigzag-144_width 16
#define zigzag-144_height 16
static char zigzag-144_bits[] = {
  0xFF, 0xFF, 0x33, 0x33, 0xFF, 0xFF, 0xCC, 0xCC, 0xFF, 0xFF, 0x33, 0x33, 
  0xFF, 0xFF, 0xCC, 0xCC, 0xFF, 0xFF, 0x33, 0x33, 0xFF, 0xFF, 0xCC, 0xCC, 
  0xFF, 0xFF, 0x33, 0x33, 0xFF, 0xFF, 0xCC, 0xCC, };
