#define zigzag-36_width 15
#define zigzag-36_height 15
static char zigzag-36_bits[] = {
  0xBD, 0x77, 0xEF, 0x3D, 0x7B, 0x6F, 0xDE, 0x7B, 0xF7, 0x5E, 0xBD, 0x77, 
  0xEF, 0x3D, 0x7B, 0x6F, 0xDE, 0x7B, 0xF7, 0x5E, 0xBD, 0x77, 0xEF, 0x3D, 
  0x7B, 0x6F, 0xDE, 0x7B, 0xF7, 0x5E, };
