#define zigzag-141_width 16
#define zigzag-141_height 16
static char zigzag-141_bits[] = {
  0xFB, 0xFB, 0xE0, 0xE0, 0xF1, 0xF1, 0xF5, 0xF5, 0xBF, 0xBF, 0x0E, 0x0E, 
  0x1F, 0x1F, 0x5F, 0x5F, 0xFB, 0xFB, 0xE0, 0xE0, 0xF1, 0xF1, 0xF5, 0xF5, 
  0xBF, 0xBF, 0x0E, 0x0E, 0x1F, 0x1F, 0x5F, 0x5F, };
