#define zigzag-41_width 16
#define zigzag-41_height 16
static char zigzag-41_bits[] = {
  0x9F, 0xF9, 0x9F, 0xF9, 0x3F, 0xFF, 0x3F, 0xFE, 0x7F, 0xFC, 0xDF, 0xF8, 
  0x8F, 0xF1, 0xC0, 0x03, 0xC0, 0x03, 0x8F, 0xF1, 0x1F, 0xFB, 0x3F, 0xFE, 
  0x7F, 0xFC, 0xFF, 0xFC, 0x9F, 0xF9, 0x9F, 0xF9, };
