#define zigzag-97_width 16
#define zigzag-97_height 16
static char zigzag-97_bits[] = {
  0xFF, 0xFE, 0x7F, 0xFD, 0xBF, 0xFB, 0xDF, 0xF7, 0xEF, 0xEF, 0xF7, 0xDF, 
  0xFB, 0xBF, 0xFD, 0x7F, 0xFE, 0xFF, 0xFD, 0x7F, 0xFB, 0xBF, 0xF7, 0xDF, 
  0xEF, 0xEF, 0xDF, 0xF7, 0xBF, 0xFB, 0x7F, 0xFD, };
