#define zigzag-111_width 16
#define zigzag-111_height 16
static char zigzag-111_bits[] = {
  0xBB, 0xBB, 0x55, 0x55, 0xEE, 0xEE, 0xEE, 0xEE, 0xEE, 0xEE, 0x55, 0x55, 
  0xBB, 0xBB, 0xBB, 0xBB, 0xBB, 0xBB, 0x55, 0x55, 0xEE, 0xEE, 0xEE, 0xEE, 
  0xEE, 0xEE, 0x55, 0x55, 0xBB, 0xBB, 0xBB, 0xBB, };
