#define zigzag-20_width 12
#define zigzag-20_height 12
static char zigzag-20_bits[] = {
  0xCC, 0x0C, 0xEE, 0x0E, 0x33, 0x03, 0xBB, 0x0B, 0xCC, 0x0C, 0xEE, 0x0E, 
  0x33, 0x03, 0xBB, 0x0B, 0xCC, 0x0C, 0xEE, 0x0E, 0x33, 0x03, 0xBB, 0x0B, 
  };
