#define zigzag-166_width 16
#define zigzag-166_height 16
static char zigzag-166_bits[] = {
  0x3D, 0x3D, 0x99, 0x99, 0xD3, 0xD3, 0xE7, 0xE7, 0xCB, 0xCB, 0x99, 0x99, 
  0xBC, 0xBC, 0x7E, 0x7E, 0x3D, 0x3D, 0x99, 0x99, 0xD3, 0xD3, 0xE7, 0xE7, 
  0xCB, 0xCB, 0x99, 0x99, 0xBC, 0xBC, 0x7E, 0x7E, };
