#define zigzag-43_width 16
#define zigzag-43_height 16
static char zigzag-43_bits[] = {
  0xE7, 0xE7, 0xE7, 0xE7, 0xE7, 0xF3, 0xE4, 0x73, 0xE4, 0x39, 0xA7, 0x19, 
  0x27, 0x8F, 0x23, 0xCE, 0x73, 0xC4, 0xF1, 0xE4, 0x98, 0xE5, 0x9C, 0x27, 
  0xCE, 0x27, 0xCF, 0xE7, 0xE7, 0xE7, 0xE7, 0xE7, };
