#define zigzag-65_width 16
#define zigzag-65_height 16
static char zigzag-65_bits[] = {
  0x55, 0x55, 0xAA, 0xAA, 0x55, 0x55, 0xAA, 0xAA, 0x55, 0x55, 0xAA, 0xAA, 
  0x55, 0x55, 0xAA, 0xAA, 0x55, 0x55, 0xAA, 0xAA, 0x55, 0x55, 0xAA, 0xAA, 
  0x55, 0x55, 0xAA, 0xAA, 0x55, 0x55, 0xAA, 0xAA, };
