#define zigzag-176_width 16
#define zigzag-176_height 16
static char zigzag-176_bits[] = {
  0xFF, 0x77, 0x01, 0x74, 0xFF, 0x77, 0xFF, 0x77, 0xFF, 0x77, 0x01, 0x74, 
  0xFF, 0x77, 0x77, 0x77, 0x77, 0xFF, 0x74, 0x01, 0x77, 0xFF, 0x77, 0xFF, 
  0x77, 0xFF, 0x74, 0x01, 0x77, 0xFF, 0x77, 0x77, };
