#define zigzag-57_width 16
#define zigzag-57_height 16
static char zigzag-57_bits[] = {
  0x44, 0x44, 0x11, 0x11, 0x44, 0x44, 0x11, 0x11, 0x44, 0x44, 0x11, 0x11, 
  0x44, 0x44, 0x11, 0x11, 0x44, 0x44, 0x11, 0x11, 0x44, 0x44, 0x11, 0x11, 
  0x44, 0x44, 0x11, 0x11, 0x44, 0x44, 0x11, 0x11, };
