#define zigzag-28_width 16
#define zigzag-28_height 16
static char zigzag-28_bits[] = {
  0xDD, 0xDD, 0xF8, 0xF8, 0xDD, 0xDD, 0x8F, 0x8F, 0xDD, 0xDD, 0xF8, 0xF8, 
  0xDD, 0xDD, 0x8F, 0x8F, 0xDD, 0xDD, 0xF8, 0xF8, 0xDD, 0xDD, 0x8F, 0x8F, 
  0xDD, 0xDD, 0xF8, 0xF8, 0xDD, 0xDD, 0x8F, 0x8F, };
