#define zigzag-120_width 15
#define zigzag-120_height 15
static char zigzag-120_bits[] = {
  0xEF, 0x3D, 0xEF, 0x3D, 0xEF, 0x3D, 0xEF, 0x3D, 0xEF, 0x3D, 0xEF, 0x3D, 
  0xEF, 0x3D, 0xEF, 0x3D, 0xEF, 0x3D, 0xEF, 0x3D, 0xEF, 0x3D, 0xEF, 0x3D, 
  0xEF, 0x3D, 0xEF, 0x3D, 0xEF, 0x3D, };
