#define zigzag-74_width 16
#define zigzag-74_height 16
static char zigzag-74_bits[] = {
  0xFF, 0xFF, 0x55, 0x55, 0xFF, 0xFF, 0x55, 0x55, 0xFF, 0xFF, 0x55, 0x55, 
  0xFF, 0xFF, 0x55, 0x55, 0xFF, 0xFF, 0x55, 0x55, 0xFF, 0xFF, 0x55, 0x55, 
  0xFF, 0xFF, 0x55, 0x55, 0xFF, 0xFF, 0x55, 0x55, };
