#define zigzag-2_width 16
#define zigzag-2_height 16
static char zigzag-2_bits[] = {
  0x11, 0x10, 0x09, 0x20, 0x2D, 0x68, 0x6D, 0x6C, 0xEC, 0x6F, 0x4E, 0xE5, 
  0xDE, 0xF7, 0xBE, 0xFB, 0xEE, 0xEF, 0xF6, 0xDF, 0xD2, 0x97, 0x92, 0x93, 
  0x13, 0x90, 0xB1, 0x1A, 0x21, 0x08, 0x41, 0x04, };
